# xmcd
#
# Track frame offsets: 
#        150
#        11906
#        20017
#        31795
#        45924
#        59043
#        74038
#        86599
#        98688
#        113322
#        125671
#        140095
#        150162
#        161996
#        171908
#        182960
#        196448
#        203953
#        216147
#        236701
#
# Disc length: 3330 seconds
#
# Revision: 0
# Processed by: cddbd v1.5.2PL0 Copyright (c) Steve Scherf et al.
# Submitted via: ExactAudioCopy v0.95b3
#
DISCID=210d0014
DTITLE=Various Artist - A Traditional COuntry Christmas
DYEAR=2003
DGENRE=Country
TTITLE0=O Holy Night
TTITLE1=Go Tell It On The Mountain
TTITLE2=Hark The Herald Angels Sing
TTITLE3=Up On The Housetop
TTITLE4=Away In A Manger
TTITLE5=O Little Town Of Bethlehem
TTITLE6=Silent Night
TTITLE7=O Come All Ye Faithful
TTITLE8=It Came Upon A Midnight Clear
TTITLE9=What Child Is This
TTITLE10=Away In A Manger
TTITLE11=God Rest Ye Merry Gentlemen
TTITLE12=Jingle Bells
TTITLE13=Joy To The World
TTITLE14=The FIrst Noel
TTITLE15=O Come All Ye Faithful
TTITLE16=We Wish you A Merry Christmas
TTITLE17=Deck The Halls
TTITLE18=Too-Ra-Loo-Ra-Loo-Ral
TTITLE19=Silen Night
EXTD=
EXTT0=
EXTT1=
EXTT2=
EXTT3=
EXTT4=
EXTT5=
EXTT6=
EXTT7=
EXTT8=
EXTT9=
EXTT10=
EXTT11=
EXTT12=
EXTT13=
EXTT14=
EXTT15=
EXTT16=
EXTT17=
EXTT18=
EXTT19=
PLAYORDER=
